<?xml version="1.0" standalone="no"?>
<!DOCTYPE svg PUBLIC "-//W3C//DTD SVG 20010904//EN"
 "http://www.w3.org/TR/2001/REC-SVG-20010904/DTD/svg10.dtd">
<svg version="1.0" xmlns="http://www.w3.org/2000/svg"
 width="500.000000pt" height="500.000000pt" viewBox="0 0 500.000000 500.000000"
 preserveAspectRatio="xMidYMid meet">

<g transform="translate(0.000000,500.000000) scale(0.100000,-0.100000)"
fill="#000000" stroke="none">
<path d="M2300 4489 c-821 -83 -1517 -674 -1729 -1469 -246 -924 191 -1891
1044 -2310 487 -239 1023 -273 1534 -99 448 154 823 460 1071 873 51 85 150
293 150 316 0 7 -97 10 -295 10 l-295 0 0 170 0 170 344 0 344 0 5 27 c3 16
12 94 18 176 50 586 -181 1185 -617 1596 -423 401 -998 598 -1574 540z m-620
-1069 c0 -20 -5 -20 -327 -18 -303 3 -328 4 -331 21 -3 16 18 17 327 17 325 0
331 0 331 -20z m-50 -604 c0 -252 4 -456 10 -487 15 -77 55 -138 112 -167 101
-52 241 -36 310 35 74 76 73 63 76 586 l3 467 227 -2 227 -3 3 -468 c3 -523
-1 -557 -63 -683 -41 -85 -129 -172 -220 -221 -202 -107 -560 -119 -801 -26
-112 44 -230 146 -279 243 -59 117 -59 114 -63 644 -2 268 -1 495 2 502 4 11
48 14 231 14 l225 0 0 -434z m1718 -288 l2 -718 -235 0 -235 0 0 713 c0 393 3
717 7 721 4 3 108 5 232 4 l226 -3 3 -717z m-614 -908 c15 -15 -4 -30 -39 -30
-57 0 -85 -49 -48 -85 11 -12 26 -15 49 -12 23 4 34 1 38 -10 10 -25 -3 -33
-50 -33 -82 0 -131 78 -88 139 31 43 107 61 138 31z m-362 -57 c3 -57 6 -68
22 -71 27 -5 36 15 36 81 0 50 2 57 20 57 18 0 20 -7 20 -72 0 -86 -14 -108
-71 -108 -57 0 -69 19 -69 106 0 67 2 74 20 74 17 0 19 -8 22 -67z m178 -23
c0 -83 -1 -90 -20 -90 -19 0 -20 7 -20 90 0 83 1 90 20 90 19 0 20 -7 20 -90z
m328 73 c-2 -12 -14 -19 -36 -21 -42 -4 -44 -32 -2 -32 23 0 30 -4 30 -20 0
-16 -7 -20 -30 -20 -42 0 -40 -28 2 -32 22 -2 34 -9 36 -20 3 -15 -5 -18 -52
-18 l-56 0 0 90 0 90 56 0 c47 0 55 -3 52 -17z m82 -53 l0 -70 30 0 c23 0 30
-4 30 -20 0 -18 -7 -20 -55 -20 l-55 0 0 90 c0 89 0 90 25 90 24 0 25 -2 25
-70z m198 53 c-2 -11 -14 -19 -31 -21 -38 -5 -36 -32 4 -32 24 0 30 -4 27 -17
-2 -11 -14 -19 -31 -21 -38 -5 -36 -32 3 -32 23 0 30 -4 30 -20 0 -18 -7 -20
-55 -20 l-55 0 0 90 0 90 56 0 c47 0 55 -3 52 -17z m144 0 c22 -20 23 -42 2
-71 -14 -20 -13 -24 12 -57 l26 -35 -28 0 c-21 0 -35 9 -51 33 l-23 32 0 -33
c0 -27 -3 -32 -25 -32 -25 0 -25 1 -25 90 l0 90 47 0 c29 0 53 -6 65 -17z
m194 -72 c19 -47 34 -86 34 -88 0 -2 -11 -3 -25 -3 -16 0 -25 6 -25 15 0 11
-11 15 -39 15 -25 0 -41 -5 -45 -15 -6 -16 -46 -21 -46 -6 0 5 9 28 19 52 11
24 26 61 35 82 12 30 20 38 37 35 16 -2 29 -23 55 -87z m174 69 c0 -13 -7 -20
-20 -20 -18 0 -20 -7 -20 -70 0 -68 -1 -70 -25 -70 -24 0 -25 2 -25 70 0 63
-2 70 -20 70 -13 0 -20 7 -20 20 0 18 7 20 65 20 58 0 65 -2 65 -20z m130 0
c0 -16 -7 -20 -30 -20 -20 0 -30 -5 -30 -15 0 -10 10 -15 30 -15 23 0 30 -4
30 -20 0 -16 -7 -20 -30 -20 -20 0 -30 -5 -30 -15 0 -10 10 -15 30 -15 23 0
30 -4 30 -20 0 -17 -7 -20 -50 -20 l-50 0 0 90 0 90 50 0 c43 0 50 -3 50 -20z"/>
<path d="M3240 1575 c0 -17 5 -25 13 -22 6 2 12 12 12 22 0 10 -6 20 -12 23
-8 2 -13 -6 -13 -23z"/>
<path d="M3426 1544 c-9 -22 -8 -24 9 -24 8 0 15 9 15 20 0 24 -15 27 -24 4z"/>
</g>
</svg>
